<svg preserveAspectRatio="xMidYMid meet" viewBox="0 0 942.000000 892.000000" height="892.000000pt" width="942.000000pt" xmlns="http://www.w3.org/2000/svg" version="1.0">

<g stroke="none" fill="#000000" transform="translate(0.000000,892.000000) scale(0.100000,-0.100000)">
<path d="M4083 7697 l-273 -172 0 -2155 0 -2155 273 -172 272 -172 3 1250 c1
687 1 1811 0 2499 l-3 1250 -272 -173z"></path>
<path d="M4940 5365 c0 -1571 4 -2495 9 -2493 6 1 420 264 920 583 l911 580 0
843 0 842 -405 0 -405 0 0 -315 0 -315 130 0 130 0 0 -372 -1 -373 -362 -226
-362 -226 -3 744 c-1 410 -1 1077 0 1484 l3 739 638 -400 c351 -220 640 -400
643 -400 2 0 4 145 4 323 l0 323 -542 339 c-299 186 -708 444 -910 572 -201
128 -373 236 -382 239 -15 6 -16 -210 -16 -2491z"></path>
<path d="M2788 6848 l-268 -200 0 -1308 0 -1307 267 -169 c147 -93 270 -170
275 -172 4 -2 8 312 8 697 l0 701 303 2 302 3 0 275 0 275 -302 3 -303 2 0
700 c0 385 -3 700 -7 699 -5 0 -128 -91 -275 -201z"></path>
<path d="M4642 2255 c-189 -53 -293 -202 -295 -420 -2 -254 138 -414 385 -440
109 -12 246 26 349 97 l49 33 0 163 0 162 -185 0 -185 0 0 -60 0 -60 120 0
120 0 0 -74 0 -73 -72 -34 c-63 -29 -84 -33 -153 -34 -130 0 -214 46 -262 143
-26 52 -28 67 -28 172 0 99 3 122 24 167 28 62 92 125 147 144 62 21 181 16
230 -9 50 -25 88 -69 104 -117 13 -39 17 -40 80 -21 52 16 54 27 18 103 -30
64 -88 118 -156 144 -74 28 -216 35 -290 14z"></path>
<path d="M707 2253 c-11 -11 -8 -843 3 -843 5 0 34 11 65 24 l55 25 0 170 0
171 210 0 210 0 0 -196 0 -195 23 6 c12 4 40 17 62 29 l40 21 0 395 0 395 -62
3 -63 3 0 -171 0 -170 -210 0 -210 0 0 170 0 170 -58 0 c-32 0 -62 -3 -65 -7z"></path>
<path d="M2750 1830 l0 -430 60 30 60 30 0 96 c0 91 1 96 28 119 15 13 30 25
33 25 4 0 48 -65 100 -145 51 -80 97 -145 102 -145 22 0 98 54 93 66 -3 7 -51
81 -107 165 l-101 152 118 118 119 119 -75 0 -75 0 -117 -117 -118 -118 0 233
0 232 -60 0 -60 0 0 -430z"></path>
<path d="M6290 2120 l0 -141 -27 19 c-98 68 -245 48 -322 -45 -76 -91 -94
-287 -37 -405 47 -99 125 -150 231 -152 48 -1 70 5 108 26 44 25 47 25 47 7 0
-25 13 -24 71 8 l49 26 -2 396 -3 396 -57 3 -58 3 0 -141z m-70 -208 c14 -10
36 -40 49 -66 34 -67 35 -200 2 -264 -56 -110 -195 -110 -253 0 -32 61 -33
214 -1 274 43 80 134 106 203 56z"></path>
<path d="M7913 2207 l-53 -32 0 -72 0 -73 -40 0 -40 0 0 -50 0 -50 40 0 40 0
0 -220 c0 -247 4 -265 64 -294 36 -17 132 -22 155 -7 10 6 11 21 6 60 -7 51
-8 52 -35 46 -16 -4 -38 -1 -49 5 -20 10 -21 19 -21 210 l0 200 50 0 50 0 0
50 0 50 -50 0 -50 0 0 105 c0 58 -3 105 -7 105 -5 -1 -32 -15 -60 -33z"></path>
<path d="M1673 2026 c-73 -23 -113 -55 -139 -110 -36 -77 -37 -75 54 -90 30
-5 33 -3 48 34 19 47 46 66 106 75 92 14 168 -31 168 -100 l0 -32 -132 -23
c-73 -12 -151 -30 -173 -39 -123 -54 -152 -207 -56 -294 74 -66 190 -71 318
-12 l54 24 9 -24 c11 -30 12 -30 73 -8 36 13 46 21 41 33 -4 8 -10 114 -13
235 -5 166 -10 227 -21 250 -18 35 -68 71 -119 85 -50 14 -167 11 -218 -4z
m222 -433 c-25 -65 -79 -98 -163 -98 -57 0 -66 3 -88 28 -40 46 -29 104 24
126 15 6 75 20 133 29 l104 18 3 -30 c2 -16 -4 -49 -13 -73z"></path>
<path d="M3509 2027 c-233 -66 -301 -386 -117 -552 63 -57 129 -79 217 -73 78
6 131 31 182 85 32 33 69 91 69 108 0 3 -31 5 -68 5 -57 0 -72 -4 -88 -21 -30
-33 -69 -49 -120 -49 -60 0 -113 30 -147 83 -47 71 -32 193 30 249 27 25 87
48 123 48 55 0 128 -48 156 -102 l15 -28 -126 0 -125 0 0 -65 0 -65 185 0 184
0 7 35 c15 82 -35 216 -103 276 -74 64 -184 91 -274 66z"></path>
<path d="M4160 2033 c-8 -3 -30 -19 -47 -36 l-33 -31 0 32 0 32 -55 0 -55 0 0
-315 0 -315 59 29 59 30 4 178 c3 152 6 184 23 218 28 56 63 71 120 53 l44
-15 19 51 c11 28 17 55 15 60 -16 26 -111 44 -153 29z"></path>
<path d="M5427 2029 c-82 -19 -147 -77 -166 -146 -12 -42 -4 -52 39 -53 14 0
34 -3 45 -6 16 -4 23 2 33 30 25 68 104 100 191 76 58 -15 81 -41 81 -90 0
-22 -3 -40 -8 -40 -36 0 -285 -51 -309 -63 -117 -61 -133 -223 -30 -301 72
-55 199 -56 306 -2 58 30 61 30 61 14 1 -36 16 -41 70 -23 45 15 51 20 46 39
-4 11 -9 109 -12 216 -6 241 -8 252 -45 295 -51 57 -186 81 -302 54z m221
-390 c-8 -84 -63 -135 -155 -145 -91 -10 -152 47 -124 114 7 17 25 35 39 41
32 13 163 38 211 40 l34 1 -5 -51z"></path>
<path d="M6683 2024 c-64 -23 -127 -97 -152 -179 -52 -169 3 -343 129 -408 48
-25 64 -28 126 -25 58 3 79 8 114 32 l43 28 -6 -23 c-4 -13 -7 -41 -7 -62 0
-28 -8 -46 -34 -74 -33 -36 -37 -38 -110 -41 -73 -4 -76 -3 -106 26 -16 17
-30 37 -30 46 0 10 -13 17 -37 21 -21 3 -49 8 -62 11 -23 5 -24 3 -19 -40 12
-106 99 -169 236 -170 99 0 153 16 204 62 81 73 83 82 86 465 l4 337 -56 0
c-56 0 -56 0 -56 -31 l0 -30 -32 24 c-65 48 -153 60 -235 31z m167 -106 c70
-36 92 -87 88 -210 -2 -79 -7 -102 -24 -125 -74 -100 -198 -95 -253 10 -25 49
-33 148 -18 219 14 65 82 126 142 128 12 0 41 -10 65 -22z"></path>
<path d="M7370 2027 c-234 -66 -302 -386 -118 -552 63 -57 129 -79 217 -73 78
6 131 31 182 85 32 33 69 91 69 108 0 3 -31 5 -68 5 -57 0 -72 -4 -88 -21 -72
-80 -216 -59 -272 39 -30 55 -30 142 1 197 61 108 193 124 280 33 60 -63 55
-68 -83 -68 l-120 0 0 -65 0 -65 184 0 184 0 7 31 c18 82 -36 224 -109 284
-23 19 -59 41 -79 50 -51 21 -135 27 -187 12z"></path>
<path d="M8310 2031 c-54 -17 -110 -52 -136 -87 -52 -68 -40 -178 26 -226 14
-10 66 -27 115 -39 167 -39 193 -48 200 -69 9 -30 -2 -54 -32 -72 -63 -36
-152 -31 -206 12 -18 15 -40 20 -81 20 -67 0 -72 -14 -27 -77 89 -123 319
-130 425 -12 59 65 60 157 3 214 -27 27 -52 37 -161 63 -150 37 -179 52 -174
89 5 45 49 68 128 68 55 0 74 -4 99 -22 24 -18 44 -23 91 -23 59 0 61 1 55 23
-26 86 -132 148 -249 146 -28 0 -62 -4 -76 -8z"></path>
<path d="M2327 2016 c-174 -62 -257 -279 -173 -451 89 -181 311 -229 449 -97
33 31 77 98 77 117 0 3 -31 5 -69 5 -49 0 -70 -4 -74 -14 -8 -19 -88 -56 -123
-56 -49 1 -110 35 -140 79 -72 109 -23 256 95 292 57 17 105 4 153 -41 38 -37
45 -40 100 -40 69 0 74 11 29 81 -72 114 -208 166 -324 125z"></path>
</g>
</svg>
